<svg xmlns="http://www.w3.org/2000/svg" class="rounded-xl" viewBox="0 0 1267.2 712.8"><rect width="1267.2" height="712.8" fill="#ffffff" id="bg" class="bg"/><g><g transform="translate(1.98,&#10;                                1.98) rotate(180, 37.62, 37.62)"><svg xmlns="http://www.w3.org/2000/svg" id="Layer_1" data-name="Layer 1" viewBox="0 0 100 100" width="75.24" height="75.24"><path d="M50,100a50,50,0,1,1,50-50v50Z" fill="#F7B801"/></svg></g><g transform="translate(1.98,&#10;                                81.18) rotate(0, 37.62, 37.62)"><svg xmlns="http://www.w3.org/2000/svg" id="Layer_1" data-name="Layer 1" viewBox="0 0 100 100" width="75.24" height="75.24"><path d="M0,100H0V0H60V40A60,60,0,0,1,0,100Z" fill="#778B17"/><circle cx="79.804" cy="29.848" r="8.109" fill="#F5D04C"/><circle cx="79.804" cy="70.152" r="8.109" fill="#F5D04C"/></svg></g><g transform="translate(81.18,&#10;                                81.18) rotate(90, 37.62, 37.62)"><svg xmlns="http://www.w3.org/2000/svg" id="Layer_1" data-name="Layer 1" viewBox="0 0 100 100" width="75.24" height="75.24"><path d="M50,100h0A50,50,0,0,1,0,50V0H100V50A50,50,0,0,1,50,100Z" fill="#F18701"/></svg></g><g transform="translate(160.38,&#10;                                1.98) rotate(0, 37.62, 37.62)"><svg xmlns="http://www.w3.org/2000/svg" id="Layer_1" data-name="Layer 1" viewBox="0 0 100 100" width="75.24" height="75.24"><path d="M100,100A50,50,0,0,0,0,100Z" fill="#3D348B"/></svg></g><g transform="translate(160.38,&#10;                                81.18) rotate(0, 37.62, 37.62)"><svg xmlns="http://www.w3.org/2000/svg" id="Layer_1" data-name="Layer 1" viewBox="0 0 100 100" width="75.24" height="75.24"><path d="M0,100H0V0H60V40A60,60,0,0,1,0,100Z" fill="#778B17"/><circle cx="79.804" cy="29.848" r="8.109" fill="#F5D04C"/><circle cx="79.804" cy="70.152" r="8.109" fill="#F5D04C"/></svg></g><g transform="translate(239.58,&#10;                                81.18) rotate(270, 37.62, 37.62)"><svg xmlns="http://www.w3.org/2000/svg" id="Layer_1" data-name="Layer 1" viewBox="0 0 100 100" width="75.24" height="75.24"><path d="M50,100h0A50,50,0,0,1,0,50V0H100V50A50,50,0,0,1,50,100Z" fill="#F18701"/></svg></g><g transform="translate(397.98,&#10;                                1.98) rotate(180, 37.62, 37.62)"><svg xmlns="http://www.w3.org/2000/svg" id="Layer_1" data-name="Layer 1" viewBox="0 0 100 100" width="75.24" height="75.24"><path d="M50,100a50,50,0,1,1,50-50v50Z" fill="#F7B801"/></svg></g><g transform="translate(318.78,&#10;                                81.18) rotate(90, 37.62, 37.62)"><svg xmlns="http://www.w3.org/2000/svg" id="Layer_1" data-name="Layer 1" viewBox="0 0 100 100" width="75.24" height="75.24"><path d="M0,100H0V0H60V40A60,60,0,0,1,0,100Z" fill="#778B17"/><circle cx="79.804" cy="29.848" r="8.109" fill="#F5D04C"/><circle cx="79.804" cy="70.152" r="8.109" fill="#F5D04C"/></svg></g><g transform="translate(397.98,&#10;                                81.18) rotate(180, 37.62, 37.62)"><svg xmlns="http://www.w3.org/2000/svg" id="Layer_1" data-name="Layer 1" viewBox="0 0 100 100" width="75.24" height="75.24"><path d="M100,100A50,50,0,0,0,0,100Z" fill="#3D348B"/></svg></g><g transform="translate(477.18,&#10;                                1.98) rotate(180, 37.62, 37.62)"><svg xmlns="http://www.w3.org/2000/svg" id="Layer_1" data-name="Layer 1" viewBox="0 0 100 100" width="75.24" height="75.24"><path d="M50,100a50,50,0,1,1,50-50v50Z" fill="#F7B801"/></svg></g><g transform="translate(556.38,&#10;                                1.98) rotate(90, 37.62, 37.62)"><svg xmlns="http://www.w3.org/2000/svg" id="Layer_1" data-name="Layer 1" viewBox="0 0 100 100" width="75.24" height="75.24"><path d="M100,100A50,50,0,0,0,0,100Z" fill="#3D348B"/></svg></g><g transform="translate(477.18,&#10;                                81.18) rotate(0, 37.62, 37.62)"><svg xmlns="http://www.w3.org/2000/svg" id="Layer_1" data-name="Layer 1" viewBox="0 0 100 100" width="75.24" height="75.24"><path d="M0,100H0V0H60V40A60,60,0,0,1,0,100Z" fill="#778B17"/><circle cx="79.804" cy="29.848" r="8.109" fill="#F5D04C"/><circle cx="79.804" cy="70.152" r="8.109" fill="#F5D04C"/></svg></g><g transform="translate(556.38,&#10;                                81.18) rotate(90, 37.62, 37.62)"><svg xmlns="http://www.w3.org/2000/svg" id="Layer_1" data-name="Layer 1" viewBox="0 0 100 100" width="75.24" height="75.24"><path d="M50,100h0A50,50,0,0,1,0,50V0H100V50A50,50,0,0,1,50,100Z" fill="#F18701"/></svg></g><g transform="translate(635.58,&#10;                                1.98) rotate(180, 37.62, 37.62)"><svg xmlns="http://www.w3.org/2000/svg" id="Layer_1" data-name="Layer 1" viewBox="0 0 100 100" width="75.24" height="75.24"><path d="M50,100a50,50,0,1,1,50-50v50Z" fill="#F7B801"/></svg></g><g transform="translate(873.18,&#10;                                81.18) rotate(0, 37.62, 37.62)"><svg xmlns="http://www.w3.org/2000/svg" id="Layer_1" data-name="Layer 1" viewBox="0 0 100 100" width="75.24" height="75.24"><path d="M100,100A50,50,0,0,0,0,100Z" fill="#3D348B"/></svg></g><g transform="translate(952.38,&#10;                                1.98) rotate(270, 37.62, 37.62)"><svg xmlns="http://www.w3.org/2000/svg" id="Layer_1" data-name="Layer 1" viewBox="0 0 100 100" width="75.24" height="75.24"><path d="M50,100a50,50,0,1,1,50-50v50Z" fill="#F7B801"/></svg></g><g transform="translate(1031.58,&#10;                                1.98) rotate(270, 37.62, 37.62)"><svg xmlns="http://www.w3.org/2000/svg" id="Layer_1" data-name="Layer 1" viewBox="0 0 100 100" width="75.24" height="75.24"><path d="M100,100A50,50,0,0,0,0,100Z" fill="#3D348B"/></svg></g><g transform="translate(952.38,&#10;                                81.18) rotate(0, 37.62, 37.62)"><svg xmlns="http://www.w3.org/2000/svg" id="Layer_1" data-name="Layer 1" viewBox="0 0 100 100" width="75.24" height="75.24"><path d="M0,100H0V0H60V40A60,60,0,0,1,0,100Z" fill="#778B17"/><circle cx="79.804" cy="29.848" r="8.109" fill="#F5D04C"/><circle cx="79.804" cy="70.152" r="8.109" fill="#F5D04C"/></svg></g><g transform="translate(1110.78,&#10;                                1.98) rotate(0, 37.62, 37.62)"><svg xmlns="http://www.w3.org/2000/svg" id="Layer_1" data-name="Layer 1" viewBox="0 0 100 100" width="75.24" height="75.24"><path d="M100,100A50,50,0,0,0,0,100Z" fill="#3D348B"/></svg></g><g transform="translate(1189.98,&#10;                                1.98) rotate(0, 37.62, 37.62)"><svg xmlns="http://www.w3.org/2000/svg" id="Layer_1" data-name="Layer 1" viewBox="0 0 100 100" width="75.24" height="75.24"><path d="M50,100a50,50,0,1,1,50-50v50Z" fill="#F7B801"/></svg></g><g transform="translate(1110.78,&#10;                                81.18) rotate(0, 37.62, 37.62)"><svg xmlns="http://www.w3.org/2000/svg" id="Layer_1" data-name="Layer 1" viewBox="0 0 100 100" width="75.24" height="75.24"><path d="M0,100H0V0H60V40A60,60,0,0,1,0,100Z" fill="#778B17"/><circle cx="79.804" cy="29.848" r="8.109" fill="#F5D04C"/><circle cx="79.804" cy="70.152" r="8.109" fill="#F5D04C"/></svg></g></g><g><g transform="translate(1.98,&#10;                                160.38) rotate(180, 37.62, 37.62)"><svg xmlns="http://www.w3.org/2000/svg" id="Layer_1" data-name="Layer 1" viewBox="0 0 100 100" width="75.24" height="75.24"><path d="M50,100h0A50,50,0,0,1,0,50V0H100V50A50,50,0,0,1,50,100Z" fill="#F18701"/></svg></g><g transform="translate(81.18,&#10;                                160.38) rotate(90, 37.62, 37.62)"><svg xmlns="http://www.w3.org/2000/svg" id="Layer_1" data-name="Layer 1" viewBox="0 0 100 100" width="75.24" height="75.24"><path d="M100,100A50,50,0,0,0,0,100Z" fill="#3D348B"/></svg></g><g transform="translate(81.18,&#10;                                239.58) rotate(270, 37.62, 37.62)"><svg xmlns="http://www.w3.org/2000/svg" id="Layer_1" data-name="Layer 1" viewBox="0 0 100 100" width="75.24" height="75.24"><path d="M50,100h0A50,50,0,0,1,0,50V0H100V50A50,50,0,0,1,50,100Z" fill="#F18701"/></svg></g><g transform="translate(160.38,&#10;                                160.38) rotate(90, 37.62, 37.62)"><svg xmlns="http://www.w3.org/2000/svg" id="Layer_1" data-name="Layer 1" viewBox="0 0 100 100" width="75.24" height="75.24"><path d="M50,100a50,50,0,1,1,50-50v50Z" fill="#F7B801"/></svg></g><g transform="translate(160.38,&#10;                                239.58) rotate(270, 37.62, 37.62)"><svg xmlns="http://www.w3.org/2000/svg" id="Layer_1" data-name="Layer 1" viewBox="0 0 100 100" width="75.24" height="75.24"><path d="M0,100H0V0H60V40A60,60,0,0,1,0,100Z" fill="#778B17"/><circle cx="79.804" cy="29.848" r="8.109" fill="#F5D04C"/><circle cx="79.804" cy="70.152" r="8.109" fill="#F5D04C"/></svg></g><g transform="translate(318.78,&#10;                                160.38) rotate(90, 37.62, 37.62)"><svg xmlns="http://www.w3.org/2000/svg" id="Layer_1" data-name="Layer 1" viewBox="0 0 100 100" width="75.24" height="75.24"><path d="M50,100h0A50,50,0,0,1,0,50V0H100V50A50,50,0,0,1,50,100Z" fill="#F18701"/></svg></g><g transform="translate(397.98,&#10;                                160.38) rotate(0, 37.62, 37.62)"><svg xmlns="http://www.w3.org/2000/svg" id="Layer_1" data-name="Layer 1" viewBox="0 0 100 100" width="75.24" height="75.24"><path d="M50,100a50,50,0,1,1,50-50v50Z" fill="#F7B801"/></svg></g><g transform="translate(397.98,&#10;                                239.58) rotate(180, 37.62, 37.62)"><svg xmlns="http://www.w3.org/2000/svg" id="Layer_1" data-name="Layer 1" viewBox="0 0 100 100" width="75.24" height="75.24"><path d="M100,100A50,50,0,0,0,0,100Z" fill="#3D348B"/></svg></g><g transform="translate(477.18,&#10;                                160.38) rotate(0, 37.62, 37.62)"><svg xmlns="http://www.w3.org/2000/svg" id="Layer_1" data-name="Layer 1" viewBox="0 0 100 100" width="75.24" height="75.24"><path d="M50,100a50,50,0,1,1,50-50v50Z" fill="#F7B801"/></svg></g><g transform="translate(477.18,&#10;                                239.58) rotate(270, 37.62, 37.62)"><svg xmlns="http://www.w3.org/2000/svg" id="Layer_1" data-name="Layer 1" viewBox="0 0 100 100" width="75.24" height="75.24"><path d="M0,100H0V0H60V40A60,60,0,0,1,0,100Z" fill="#778B17"/><circle cx="79.804" cy="29.848" r="8.109" fill="#F5D04C"/><circle cx="79.804" cy="70.152" r="8.109" fill="#F5D04C"/></svg></g><g transform="translate(556.38,&#10;                                239.58) rotate(270, 37.62, 37.62)"><svg xmlns="http://www.w3.org/2000/svg" id="Layer_1" data-name="Layer 1" viewBox="0 0 100 100" width="75.24" height="75.24"><path d="M100,100A50,50,0,0,0,0,100Z" fill="#3D348B"/></svg></g><g transform="translate(635.58,&#10;                                239.58) rotate(90, 37.62, 37.62)"><svg xmlns="http://www.w3.org/2000/svg" id="Layer_1" data-name="Layer 1" viewBox="0 0 100 100" width="75.24" height="75.24"><path d="M0,100H0V0H60V40A60,60,0,0,1,0,100Z" fill="#778B17"/><circle cx="79.804" cy="29.848" r="8.109" fill="#F5D04C"/><circle cx="79.804" cy="70.152" r="8.109" fill="#F5D04C"/></svg></g><g transform="translate(714.78,&#10;                                239.58) rotate(0, 37.62, 37.62)"><svg xmlns="http://www.w3.org/2000/svg" id="Layer_1" data-name="Layer 1" viewBox="0 0 100 100" width="75.24" height="75.24"><path d="M50,100h0A50,50,0,0,1,0,50V0H100V50A50,50,0,0,1,50,100Z" fill="#F18701"/></svg></g><g transform="translate(793.98,&#10;                                160.38) rotate(180, 37.62, 37.62)"><svg xmlns="http://www.w3.org/2000/svg" id="Layer_1" data-name="Layer 1" viewBox="0 0 100 100" width="75.24" height="75.24"><path d="M50,100a50,50,0,1,1,50-50v50Z" fill="#F7B801"/></svg></g><g transform="translate(873.18,&#10;                                160.38) rotate(270, 37.62, 37.62)"><svg xmlns="http://www.w3.org/2000/svg" id="Layer_1" data-name="Layer 1" viewBox="0 0 100 100" width="75.24" height="75.24"><path d="M50,100a50,50,0,1,1,50-50v50Z" fill="#F7B801"/></svg></g><g transform="translate(793.98,&#10;                                239.58) rotate(90, 37.62, 37.62)"><svg xmlns="http://www.w3.org/2000/svg" id="Layer_1" data-name="Layer 1" viewBox="0 0 100 100" width="75.24" height="75.24"><path d="M0,100H0V0H60V40A60,60,0,0,1,0,100Z" fill="#778B17"/><circle cx="79.804" cy="29.848" r="8.109" fill="#F5D04C"/><circle cx="79.804" cy="70.152" r="8.109" fill="#F5D04C"/></svg></g><g transform="translate(952.38,&#10;                                160.38) rotate(180, 37.62, 37.62)"><svg xmlns="http://www.w3.org/2000/svg" id="Layer_1" data-name="Layer 1" viewBox="0 0 100 100" width="75.24" height="75.24"><path d="M100,100A50,50,0,0,0,0,100Z" fill="#3D348B"/></svg></g><g transform="translate(1031.58,&#10;                                239.58) rotate(90, 37.62, 37.62)"><svg xmlns="http://www.w3.org/2000/svg" id="Layer_1" data-name="Layer 1" viewBox="0 0 100 100" width="75.24" height="75.24"><path d="M50,100h0A50,50,0,0,1,0,50V0H100V50A50,50,0,0,1,50,100Z" fill="#F18701"/></svg></g><g transform="translate(1110.78,&#10;                                160.38) rotate(0, 37.62, 37.62)"><svg xmlns="http://www.w3.org/2000/svg" id="Layer_1" data-name="Layer 1" viewBox="0 0 100 100" width="75.24" height="75.24"><path d="M100,100A50,50,0,0,0,0,100Z" fill="#3D348B"/></svg></g></g><g><g transform="translate(1.98,&#10;                                318.78) rotate(180, 37.62, 37.62)"><svg xmlns="http://www.w3.org/2000/svg" id="Layer_1" data-name="Layer 1" viewBox="0 0 100 100" width="75.24" height="75.24"><path d="M50,100h0A50,50,0,0,1,0,50V0H100V50A50,50,0,0,1,50,100Z" fill="#F18701"/></svg></g><g transform="translate(81.18,&#10;                                318.78) rotate(270, 37.62, 37.62)"><svg xmlns="http://www.w3.org/2000/svg" id="Layer_1" data-name="Layer 1" viewBox="0 0 100 100" width="75.24" height="75.24"><path d="M50,100a50,50,0,1,1,50-50v50Z" fill="#F7B801"/></svg></g><g transform="translate(1.98,&#10;                                397.98) rotate(90, 37.62, 37.62)"><svg xmlns="http://www.w3.org/2000/svg" id="Layer_1" data-name="Layer 1" viewBox="0 0 100 100" width="75.24" height="75.24"><path d="M50,100a50,50,0,1,1,50-50v50Z" fill="#F7B801"/></svg></g><g transform="translate(81.18,&#10;                                397.98) rotate(0, 37.62, 37.62)"><svg xmlns="http://www.w3.org/2000/svg" id="Layer_1" data-name="Layer 1" viewBox="0 0 100 100" width="75.24" height="75.24"><path d="M100,100A50,50,0,0,0,0,100Z" fill="#3D348B"/></svg></g><g transform="translate(239.58,&#10;                                318.78) rotate(270, 37.62, 37.62)"><svg xmlns="http://www.w3.org/2000/svg" id="Layer_1" data-name="Layer 1" viewBox="0 0 100 100" width="75.24" height="75.24"><path d="M100,100A50,50,0,0,0,0,100Z" fill="#3D348B"/></svg></g><g transform="translate(160.38,&#10;                                397.98) rotate(90, 37.62, 37.62)"><svg xmlns="http://www.w3.org/2000/svg" id="Layer_1" data-name="Layer 1" viewBox="0 0 100 100" width="75.24" height="75.24"><path d="M0,100H0V0H60V40A60,60,0,0,1,0,100Z" fill="#778B17"/><circle cx="79.804" cy="29.848" r="8.109" fill="#F5D04C"/><circle cx="79.804" cy="70.152" r="8.109" fill="#F5D04C"/></svg></g><g transform="translate(239.58,&#10;                                397.98) rotate(0, 37.62, 37.62)"><svg xmlns="http://www.w3.org/2000/svg" id="Layer_1" data-name="Layer 1" viewBox="0 0 100 100" width="75.24" height="75.24"><path d="M50,100h0A50,50,0,0,1,0,50V0H100V50A50,50,0,0,1,50,100Z" fill="#F18701"/></svg></g><g transform="translate(318.78,&#10;                                318.78) rotate(180, 37.62, 37.62)"><svg xmlns="http://www.w3.org/2000/svg" id="Layer_1" data-name="Layer 1" viewBox="0 0 100 100" width="75.24" height="75.24"><path d="M50,100a50,50,0,1,1,50-50v50Z" fill="#F7B801"/></svg></g><g transform="translate(318.78,&#10;                                397.98) rotate(180, 37.62, 37.62)"><svg xmlns="http://www.w3.org/2000/svg" id="Layer_1" data-name="Layer 1" viewBox="0 0 100 100" width="75.24" height="75.24"><path d="M0,100H0V0H60V40A60,60,0,0,1,0,100Z" fill="#778B17"/><circle cx="79.804" cy="29.848" r="8.109" fill="#F5D04C"/><circle cx="79.804" cy="70.152" r="8.109" fill="#F5D04C"/></svg></g><g transform="translate(477.18,&#10;                                318.78) rotate(90, 37.62, 37.62)"><svg xmlns="http://www.w3.org/2000/svg" id="Layer_1" data-name="Layer 1" viewBox="0 0 100 100" width="75.24" height="75.24"><path d="M50,100a50,50,0,1,1,50-50v50Z" fill="#F7B801"/></svg></g><g transform="translate(556.38,&#10;                                318.78) rotate(90, 37.62, 37.62)"><svg xmlns="http://www.w3.org/2000/svg" id="Layer_1" data-name="Layer 1" viewBox="0 0 100 100" width="75.24" height="75.24"><path d="M100,100A50,50,0,0,0,0,100Z" fill="#3D348B"/></svg></g><g transform="translate(477.18,&#10;                                397.98) rotate(0, 37.62, 37.62)"><svg xmlns="http://www.w3.org/2000/svg" id="Layer_1" data-name="Layer 1" viewBox="0 0 100 100" width="75.24" height="75.24"><path d="M0,100H0V0H60V40A60,60,0,0,1,0,100Z" fill="#778B17"/><circle cx="79.804" cy="29.848" r="8.109" fill="#F5D04C"/><circle cx="79.804" cy="70.152" r="8.109" fill="#F5D04C"/></svg></g><g transform="translate(556.38,&#10;                                397.98) rotate(270, 37.62, 37.62)"><svg xmlns="http://www.w3.org/2000/svg" id="Layer_1" data-name="Layer 1" viewBox="0 0 100 100" width="75.24" height="75.24"><path d="M100,100A50,50,0,0,0,0,100Z" fill="#3D348B"/></svg></g><g transform="translate(714.78,&#10;                                318.78) rotate(270, 37.62, 37.62)"><svg xmlns="http://www.w3.org/2000/svg" id="Layer_1" data-name="Layer 1" viewBox="0 0 100 100" width="75.24" height="75.24"><path d="M100,100A50,50,0,0,0,0,100Z" fill="#3D348B"/></svg></g><g transform="translate(635.58,&#10;                                397.98) rotate(270, 37.62, 37.62)"><svg xmlns="http://www.w3.org/2000/svg" id="Layer_1" data-name="Layer 1" viewBox="0 0 100 100" width="75.24" height="75.24"><path d="M0,100H0V0H60V40A60,60,0,0,1,0,100Z" fill="#778B17"/><circle cx="79.804" cy="29.848" r="8.109" fill="#F5D04C"/><circle cx="79.804" cy="70.152" r="8.109" fill="#F5D04C"/></svg></g><g transform="translate(714.78,&#10;                                397.98) rotate(270, 37.62, 37.62)"><svg xmlns="http://www.w3.org/2000/svg" id="Layer_1" data-name="Layer 1" viewBox="0 0 100 100" width="75.24" height="75.24"><path d="M50,100h0A50,50,0,0,1,0,50V0H100V50A50,50,0,0,1,50,100Z" fill="#F18701"/></svg></g><g transform="translate(793.98,&#10;                                318.78) rotate(0, 37.62, 37.62)"><svg xmlns="http://www.w3.org/2000/svg" id="Layer_1" data-name="Layer 1" viewBox="0 0 100 100" width="75.24" height="75.24"><path d="M50,100a50,50,0,1,1,50-50v50Z" fill="#F7B801"/></svg></g><g transform="translate(873.18,&#10;                                318.78) rotate(270, 37.62, 37.62)"><svg xmlns="http://www.w3.org/2000/svg" id="Layer_1" data-name="Layer 1" viewBox="0 0 100 100" width="75.24" height="75.24"><path d="M50,100a50,50,0,1,1,50-50v50Z" fill="#F7B801"/></svg></g><g transform="translate(793.98,&#10;                                397.98) rotate(180, 37.62, 37.62)"><svg xmlns="http://www.w3.org/2000/svg" id="Layer_1" data-name="Layer 1" viewBox="0 0 100 100" width="75.24" height="75.24"><path d="M0,100H0V0H60V40A60,60,0,0,1,0,100Z" fill="#778B17"/><circle cx="79.804" cy="29.848" r="8.109" fill="#F5D04C"/><circle cx="79.804" cy="70.152" r="8.109" fill="#F5D04C"/></svg></g><g transform="translate(952.38,&#10;                                397.98) rotate(270, 37.62, 37.62)"><svg xmlns="http://www.w3.org/2000/svg" id="Layer_1" data-name="Layer 1" viewBox="0 0 100 100" width="75.24" height="75.24"><path d="M0,100H0V0H60V40A60,60,0,0,1,0,100Z" fill="#778B17"/><circle cx="79.804" cy="29.848" r="8.109" fill="#F5D04C"/><circle cx="79.804" cy="70.152" r="8.109" fill="#F5D04C"/></svg></g><g transform="translate(1031.58,&#10;                                397.98) rotate(180, 37.62, 37.62)"><svg xmlns="http://www.w3.org/2000/svg" id="Layer_1" data-name="Layer 1" viewBox="0 0 100 100" width="75.24" height="75.24"><path d="M100,100A50,50,0,0,0,0,100Z" fill="#3D348B"/></svg></g><g transform="translate(1110.78,&#10;                                318.78) rotate(270, 37.62, 37.62)"><svg xmlns="http://www.w3.org/2000/svg" id="Layer_1" data-name="Layer 1" viewBox="0 0 100 100" width="75.24" height="75.24"><path d="M50,100a50,50,0,1,1,50-50v50Z" fill="#F7B801"/></svg></g><g transform="translate(1110.78,&#10;                                397.98) rotate(270, 37.62, 37.62)"><svg xmlns="http://www.w3.org/2000/svg" id="Layer_1" data-name="Layer 1" viewBox="0 0 100 100" width="75.24" height="75.24"><path d="M0,100H0V0H60V40A60,60,0,0,1,0,100Z" fill="#778B17"/><circle cx="79.804" cy="29.848" r="8.109" fill="#F5D04C"/><circle cx="79.804" cy="70.152" r="8.109" fill="#F5D04C"/></svg></g></g><g><g transform="translate(81.18,&#10;                                477.18) rotate(180, 37.62, 37.62)"><svg xmlns="http://www.w3.org/2000/svg" id="Layer_1" data-name="Layer 1" viewBox="0 0 100 100" width="75.24" height="75.24"><path d="M100,100A50,50,0,0,0,0,100Z" fill="#3D348B"/></svg></g><g transform="translate(160.38,&#10;                                477.18) rotate(90, 37.62, 37.62)"><svg xmlns="http://www.w3.org/2000/svg" id="Layer_1" data-name="Layer 1" viewBox="0 0 100 100" width="75.24" height="75.24"><path d="M50,100h0A50,50,0,0,1,0,50V0H100V50A50,50,0,0,1,50,100Z" fill="#F18701"/></svg></g><g transform="translate(160.38,&#10;                                556.38) rotate(0, 37.62, 37.62)"><svg xmlns="http://www.w3.org/2000/svg" id="Layer_1" data-name="Layer 1" viewBox="0 0 100 100" width="75.24" height="75.24"><path d="M0,100H0V0H60V40A60,60,0,0,1,0,100Z" fill="#778B17"/><circle cx="79.804" cy="29.848" r="8.109" fill="#F5D04C"/><circle cx="79.804" cy="70.152" r="8.109" fill="#F5D04C"/></svg></g><g transform="translate(318.78,&#10;                                477.18) rotate(270, 37.62, 37.62)"><svg xmlns="http://www.w3.org/2000/svg" id="Layer_1" data-name="Layer 1" viewBox="0 0 100 100" width="75.24" height="75.24"><path d="M50,100a50,50,0,1,1,50-50v50Z" fill="#F7B801"/></svg></g><g transform="translate(397.98,&#10;                                477.18) rotate(90, 37.62, 37.62)"><svg xmlns="http://www.w3.org/2000/svg" id="Layer_1" data-name="Layer 1" viewBox="0 0 100 100" width="75.24" height="75.24"><path d="M100,100A50,50,0,0,0,0,100Z" fill="#3D348B"/></svg></g><g transform="translate(318.78,&#10;                                556.38) rotate(180, 37.62, 37.62)"><svg xmlns="http://www.w3.org/2000/svg" id="Layer_1" data-name="Layer 1" viewBox="0 0 100 100" width="75.24" height="75.24"><path d="M0,100H0V0H60V40A60,60,0,0,1,0,100Z" fill="#778B17"/><circle cx="79.804" cy="29.848" r="8.109" fill="#F5D04C"/><circle cx="79.804" cy="70.152" r="8.109" fill="#F5D04C"/></svg></g><g transform="translate(397.98,&#10;                                556.38) rotate(180, 37.62, 37.62)"><svg xmlns="http://www.w3.org/2000/svg" id="Layer_1" data-name="Layer 1" viewBox="0 0 100 100" width="75.24" height="75.24"><path d="M100,100A50,50,0,0,0,0,100Z" fill="#3D348B"/></svg></g><g transform="translate(477.18,&#10;                                477.18) rotate(90, 37.62, 37.62)"><svg xmlns="http://www.w3.org/2000/svg" id="Layer_1" data-name="Layer 1" viewBox="0 0 100 100" width="75.24" height="75.24"><path d="M50,100a50,50,0,1,1,50-50v50Z" fill="#F7B801"/></svg></g><g transform="translate(477.18,&#10;                                556.38) rotate(180, 37.62, 37.62)"><svg xmlns="http://www.w3.org/2000/svg" id="Layer_1" data-name="Layer 1" viewBox="0 0 100 100" width="75.24" height="75.24"><path d="M0,100H0V0H60V40A60,60,0,0,1,0,100Z" fill="#778B17"/><circle cx="79.804" cy="29.848" r="8.109" fill="#F5D04C"/><circle cx="79.804" cy="70.152" r="8.109" fill="#F5D04C"/></svg></g><g transform="translate(556.38,&#10;                                556.38) rotate(180, 37.62, 37.62)"><svg xmlns="http://www.w3.org/2000/svg" id="Layer_1" data-name="Layer 1" viewBox="0 0 100 100" width="75.24" height="75.24"><path d="M50,100h0A50,50,0,0,1,0,50V0H100V50A50,50,0,0,1,50,100Z" fill="#F18701"/></svg></g><g transform="translate(635.58,&#10;                                477.18) rotate(270, 37.62, 37.62)"><svg xmlns="http://www.w3.org/2000/svg" id="Layer_1" data-name="Layer 1" viewBox="0 0 100 100" width="75.24" height="75.24"><path d="M50,100a50,50,0,1,1,50-50v50Z" fill="#F7B801"/></svg></g><g transform="translate(714.78,&#10;                                477.18) rotate(0, 37.62, 37.62)"><svg xmlns="http://www.w3.org/2000/svg" id="Layer_1" data-name="Layer 1" viewBox="0 0 100 100" width="75.24" height="75.24"><path d="M100,100A50,50,0,0,0,0,100Z" fill="#3D348B"/></svg></g><g transform="translate(714.78,&#10;                                556.38) rotate(0, 37.62, 37.62)"><svg xmlns="http://www.w3.org/2000/svg" id="Layer_1" data-name="Layer 1" viewBox="0 0 100 100" width="75.24" height="75.24"><path d="M100,100A50,50,0,0,0,0,100Z" fill="#3D348B"/></svg></g><g transform="translate(793.98,&#10;                                477.18) rotate(180, 37.62, 37.62)"><svg xmlns="http://www.w3.org/2000/svg" id="Layer_1" data-name="Layer 1" viewBox="0 0 100 100" width="75.24" height="75.24"><path d="M100,100A50,50,0,0,0,0,100Z" fill="#3D348B"/></svg></g><g transform="translate(873.18,&#10;                                477.18) rotate(0, 37.62, 37.62)"><svg xmlns="http://www.w3.org/2000/svg" id="Layer_1" data-name="Layer 1" viewBox="0 0 100 100" width="75.24" height="75.24"><path d="M100,100A50,50,0,0,0,0,100Z" fill="#3D348B"/></svg></g><g transform="translate(873.18,&#10;                                556.38) rotate(180, 37.62, 37.62)"><svg xmlns="http://www.w3.org/2000/svg" id="Layer_1" data-name="Layer 1" viewBox="0 0 100 100" width="75.24" height="75.24"><path d="M100,100A50,50,0,0,0,0,100Z" fill="#3D348B"/></svg></g><g transform="translate(1031.58,&#10;                                477.18) rotate(180, 37.62, 37.62)"><svg xmlns="http://www.w3.org/2000/svg" id="Layer_1" data-name="Layer 1" viewBox="0 0 100 100" width="75.24" height="75.24"><path d="M50,100a50,50,0,1,1,50-50v50Z" fill="#F7B801"/></svg></g><g transform="translate(952.38,&#10;                                556.38) rotate(180, 37.62, 37.62)"><svg xmlns="http://www.w3.org/2000/svg" id="Layer_1" data-name="Layer 1" viewBox="0 0 100 100" width="75.24" height="75.24"><path d="M0,100H0V0H60V40A60,60,0,0,1,0,100Z" fill="#778B17"/><circle cx="79.804" cy="29.848" r="8.109" fill="#F5D04C"/><circle cx="79.804" cy="70.152" r="8.109" fill="#F5D04C"/></svg></g><g transform="translate(1189.98,&#10;                                556.38) rotate(90, 37.62, 37.62)"><svg xmlns="http://www.w3.org/2000/svg" id="Layer_1" data-name="Layer 1" viewBox="0 0 100 100" width="75.24" height="75.24"><path d="M50,100h0A50,50,0,0,1,0,50V0H100V50A50,50,0,0,1,50,100Z" fill="#F18701"/></svg></g></g><g><g transform="translate(1.98,&#10;                                635.58) rotate(0, 37.62, 37.62)"><svg xmlns="http://www.w3.org/2000/svg" id="Layer_1" data-name="Layer 1" viewBox="0 0 100 100" width="75.24" height="75.24"><path d="M100,100A50,50,0,0,0,0,100Z" fill="#3D348B"/></svg></g><g transform="translate(81.18,&#10;                                635.58) rotate(90, 37.62, 37.62)"><svg xmlns="http://www.w3.org/2000/svg" id="Layer_1" data-name="Layer 1" viewBox="0 0 100 100" width="75.24" height="75.24"><path d="M100,100A50,50,0,0,0,0,100Z" fill="#3D348B"/></svg></g><g transform="translate(1.98,&#10;                                714.78) rotate(270, 37.62, 37.62)"><svg xmlns="http://www.w3.org/2000/svg" id="Layer_1" data-name="Layer 1" viewBox="0 0 100 100" width="75.24" height="75.24"><path d="M0,100H0V0H60V40A60,60,0,0,1,0,100Z" fill="#778B17"/><circle cx="79.804" cy="29.848" r="8.109" fill="#F5D04C"/><circle cx="79.804" cy="70.152" r="8.109" fill="#F5D04C"/></svg></g><g transform="translate(160.38,&#10;                                635.58) rotate(90, 37.62, 37.62)"><svg xmlns="http://www.w3.org/2000/svg" id="Layer_1" data-name="Layer 1" viewBox="0 0 100 100" width="75.24" height="75.24"><path d="M50,100a50,50,0,1,1,50-50v50Z" fill="#F7B801"/></svg></g><g transform="translate(239.58,&#10;                                635.58) rotate(0, 37.62, 37.62)"><svg xmlns="http://www.w3.org/2000/svg" id="Layer_1" data-name="Layer 1" viewBox="0 0 100 100" width="75.24" height="75.24"><path d="M50,100a50,50,0,1,1,50-50v50Z" fill="#F7B801"/></svg></g><g transform="translate(160.38,&#10;                                714.78) rotate(270, 37.62, 37.62)"><svg xmlns="http://www.w3.org/2000/svg" id="Layer_1" data-name="Layer 1" viewBox="0 0 100 100" width="75.24" height="75.24"><path d="M0,100H0V0H60V40A60,60,0,0,1,0,100Z" fill="#778B17"/><circle cx="79.804" cy="29.848" r="8.109" fill="#F5D04C"/><circle cx="79.804" cy="70.152" r="8.109" fill="#F5D04C"/></svg></g><g transform="translate(239.58,&#10;                                714.78) rotate(0, 37.62, 37.62)"><svg xmlns="http://www.w3.org/2000/svg" id="Layer_1" data-name="Layer 1" viewBox="0 0 100 100" width="75.24" height="75.24"><path d="M100,100A50,50,0,0,0,0,100Z" fill="#3D348B"/></svg></g><g transform="translate(318.78,&#10;                                714.78) rotate(90, 37.62, 37.62)"><svg xmlns="http://www.w3.org/2000/svg" id="Layer_1" data-name="Layer 1" viewBox="0 0 100 100" width="75.24" height="75.24"><path d="M0,100H0V0H60V40A60,60,0,0,1,0,100Z" fill="#778B17"/><circle cx="79.804" cy="29.848" r="8.109" fill="#F5D04C"/><circle cx="79.804" cy="70.152" r="8.109" fill="#F5D04C"/></svg></g><g transform="translate(397.98,&#10;                                714.78) rotate(270, 37.62, 37.62)"><svg xmlns="http://www.w3.org/2000/svg" id="Layer_1" data-name="Layer 1" viewBox="0 0 100 100" width="75.24" height="75.24"><path d="M100,100A50,50,0,0,0,0,100Z" fill="#3D348B"/></svg></g><g transform="translate(477.18,&#10;                                635.58) rotate(90, 37.62, 37.62)"><svg xmlns="http://www.w3.org/2000/svg" id="Layer_1" data-name="Layer 1" viewBox="0 0 100 100" width="75.24" height="75.24"><path d="M50,100a50,50,0,1,1,50-50v50Z" fill="#F7B801"/></svg></g><g transform="translate(556.38,&#10;                                635.58) rotate(270, 37.62, 37.62)"><svg xmlns="http://www.w3.org/2000/svg" id="Layer_1" data-name="Layer 1" viewBox="0 0 100 100" width="75.24" height="75.24"><path d="M100,100A50,50,0,0,0,0,100Z" fill="#3D348B"/></svg></g><g transform="translate(477.18,&#10;                                714.78) rotate(0, 37.62, 37.62)"><svg xmlns="http://www.w3.org/2000/svg" id="Layer_1" data-name="Layer 1" viewBox="0 0 100 100" width="75.24" height="75.24"><path d="M0,100H0V0H60V40A60,60,0,0,1,0,100Z" fill="#778B17"/><circle cx="79.804" cy="29.848" r="8.109" fill="#F5D04C"/><circle cx="79.804" cy="70.152" r="8.109" fill="#F5D04C"/></svg></g><g transform="translate(714.78,&#10;                                635.58) rotate(0, 37.62, 37.62)"><svg xmlns="http://www.w3.org/2000/svg" id="Layer_1" data-name="Layer 1" viewBox="0 0 100 100" width="75.24" height="75.24"><path d="M100,100A50,50,0,0,0,0,100Z" fill="#3D348B"/></svg></g><g transform="translate(635.58,&#10;                                714.78) rotate(180, 37.62, 37.62)"><svg xmlns="http://www.w3.org/2000/svg" id="Layer_1" data-name="Layer 1" viewBox="0 0 100 100" width="75.24" height="75.24"><path d="M0,100H0V0H60V40A60,60,0,0,1,0,100Z" fill="#778B17"/><circle cx="79.804" cy="29.848" r="8.109" fill="#F5D04C"/><circle cx="79.804" cy="70.152" r="8.109" fill="#F5D04C"/></svg></g><g transform="translate(793.98,&#10;                                635.58) rotate(270, 37.62, 37.62)"><svg xmlns="http://www.w3.org/2000/svg" id="Layer_1" data-name="Layer 1" viewBox="0 0 100 100" width="75.24" height="75.24"><path d="M50,100a50,50,0,1,1,50-50v50Z" fill="#F7B801"/></svg></g><g transform="translate(793.98,&#10;                                714.78) rotate(90, 37.62, 37.62)"><svg xmlns="http://www.w3.org/2000/svg" id="Layer_1" data-name="Layer 1" viewBox="0 0 100 100" width="75.24" height="75.24"><path d="M0,100H0V0H60V40A60,60,0,0,1,0,100Z" fill="#778B17"/><circle cx="79.804" cy="29.848" r="8.109" fill="#F5D04C"/><circle cx="79.804" cy="70.152" r="8.109" fill="#F5D04C"/></svg></g><g transform="translate(873.18,&#10;                                714.78) rotate(90, 37.62, 37.62)"><svg xmlns="http://www.w3.org/2000/svg" id="Layer_1" data-name="Layer 1" viewBox="0 0 100 100" width="75.24" height="75.24"><path d="M100,100A50,50,0,0,0,0,100Z" fill="#3D348B"/></svg></g><g transform="translate(952.38,&#10;                                635.58) rotate(270, 37.62, 37.62)"><svg xmlns="http://www.w3.org/2000/svg" id="Layer_1" data-name="Layer 1" viewBox="0 0 100 100" width="75.24" height="75.24"><path d="M50,100a50,50,0,1,1,50-50v50Z" fill="#F7B801"/></svg></g><g transform="translate(952.38,&#10;                                714.78) rotate(0, 37.62, 37.62)"><svg xmlns="http://www.w3.org/2000/svg" id="Layer_1" data-name="Layer 1" viewBox="0 0 100 100" width="75.24" height="75.24"><path d="M0,100H0V0H60V40A60,60,0,0,1,0,100Z" fill="#778B17"/><circle cx="79.804" cy="29.848" r="8.109" fill="#F5D04C"/><circle cx="79.804" cy="70.152" r="8.109" fill="#F5D04C"/></svg></g><g transform="translate(1110.78,&#10;                                635.58) rotate(180, 37.62, 37.62)"><svg xmlns="http://www.w3.org/2000/svg" id="Layer_1" data-name="Layer 1" viewBox="0 0 100 100" width="75.24" height="75.24"><path d="M50,100a50,50,0,1,1,50-50v50Z" fill="#F7B801"/></svg></g><g transform="translate(1110.78,&#10;                                714.78) rotate(90, 37.62, 37.62)"><svg xmlns="http://www.w3.org/2000/svg" id="Layer_1" data-name="Layer 1" viewBox="0 0 100 100" width="75.24" height="75.24"><path d="M0,100H0V0H60V40A60,60,0,0,1,0,100Z" fill="#778B17"/><circle cx="79.804" cy="29.848" r="8.109" fill="#F5D04C"/><circle cx="79.804" cy="70.152" r="8.109" fill="#F5D04C"/></svg></g><g transform="translate(1189.98,&#10;                                714.78) rotate(0, 37.62, 37.62)"><svg xmlns="http://www.w3.org/2000/svg" id="Layer_1" data-name="Layer 1" viewBox="0 0 100 100" width="75.24" height="75.24"><path d="M50,100h0A50,50,0,0,1,0,50V0H100V50A50,50,0,0,1,50,100Z" fill="#F18701"/></svg></g></g></svg>